<svg width="32" height="32" viewBox="0 0 32 32" fill="none" xmlns="http://www.w3.org/2000/svg">
<path d="M5.33333 24.8889C5.33333 21.3333 12.4444 19.3778 16 19.3778C19.5556 19.3778 26.6667 21.3333 26.6667 24.8889V26.6667H5.33333V24.8889ZM21.3333 10.6667C21.3333 12.0812 20.7714 13.4377 19.7712 14.4379C18.771 15.4381 17.4145 16 16 16C14.5855 16 13.229 15.4381 12.2288 14.4379C11.2286 13.4377 10.6667 12.0812 10.6667 10.6667C10.6667 9.25218 11.2286 7.89562 12.2288 6.89543C13.229 5.89524 14.5855 5.33333 16 5.33333C17.4145 5.33333 18.771 5.89524 19.7712 6.89543C20.7714 7.89562 21.3333 9.25218 21.3333 10.6667ZM0 3.55556V28.4444C0 29.3874 0.374602 30.2918 1.0414 30.9586C1.70819 31.6254 2.61256 32 3.55556 32H28.4444C29.3874 32 30.2918 31.6254 30.9586 30.9586C31.6254 30.2918 32 29.3874 32 28.4444V3.55556C32 2.61256 31.6254 1.70819 30.9586 1.0414C30.2918 0.374602 29.3874 0 28.4444 0H3.55556C2.61256 0 1.70819 0.374602 1.0414 1.0414C0.374602 1.70819 0 2.61256 0 3.55556Z" fill="#222299"/>
</svg>
